<?xml version="1.0" encoding="UTF-8"?><svg id="Leaf" xmlns="http://www.w3.org/2000/svg" viewBox="0 0 250 250"><path d="m97.51,211.41c-4.14,3.18-8.07,6.37-12.16,9.33-19.7,14.28-41.15,24.24-65.73,26.38-2.46.21-5.05.65-7.38.13-1.51-.34-2.66-2.25-3.97-3.46,1.2-1.27,2.23-3.39,3.62-3.65,5.82-1.1,11.81-1.32,17.63-2.44,22.93-4.41,42.26-16.1,61.44-30.64-2.56-.9-4.28-1.54-6.03-2.11-27.93-9.21-48.27-26.43-54.39-56.1-6.79-32.92-.86-63.23,24.6-87.25,14.17-13.37,31.67-21.52,50.13-27.01,23.05-6.86,46.51-12.32,69.55-19.16,9.54-2.83,18.64-7.33,27.6-11.78,3.93-1.95,5.72-1.54,7.83,2.05,10.61,18.05,17.85,37.46,23.14,57.62,5.17,19.69,8.61,39.73,8.3,60.12-.39,25.73-5.17,50.52-19.09,72.8-12.93,20.7-30.32,35.98-53.79,43.7-21.21,6.98-56.07,2.97-69.85-26.8-.25-.55-.8-.96-1.46-1.73Zm136.39-89.45c.48-.07.95-.14,1.43-.22-2.47-16.6-4.24-33.34-7.6-49.76-4.11-20.09-11.6-39.14-21.26-57.28-.99-1.86-1.71-4.2-4.71-2.34-12.65,7.83-26.87,11.43-41.01,15.39-22.51,6.29-45.41,11.65-67.2,19.89-32.4,12.24-54.5,34.21-57.46,71.02-1.39,17.35.46,34.02,10.17,48.95,10.9,16.76,26.94,26.53,45.91,31.29,7.24,1.82,12.85,3.8,14.29,12.02.37,2.11,2.13,4.07,3.53,5.89,10.95,14.34,26.24,19.44,43.32,17.94,24.39-2.15,42.68-15.72,57.03-34.69,17.43-23.03,23.73-49.64,23.57-78.09Z"/><path d="m152.34,137.51c1.66,2.33,3.36,3.72,3.47,5.22.09,1.14-1.83,2.44-2.86,3.67-1.4-1.34-3.29-2.47-3.98-4.11-.32-.76,1.69-2.51,3.37-4.79Z"/><path d="m138.97,124.91c3.45-.19,6.77-.83,6.68,3.44-.02,1.13-2.26,3.19-3.4,3.13-4.2-.19-3.35-3.45-3.28-6.57Z"/><path d="m218.95,113.1c.76,1.44,2.4,3.17,2.05,4.26-.43,1.34-2.42,2.64-3.94,2.94-.69.14-2.66-2.18-2.62-3.34.04-1.35,1.64-2.65,2.57-3.97.65.03,1.3.07,1.94.1Z"/><path d="m130.32,60.34c1.96,2.55,3.8,3.9,3.78,5.22-.01,1.17-2.16,3.29-3.23,3.21-1.27-.09-2.98-1.94-3.38-3.34-.28-.99,1.31-2.51,2.83-5.1Z"/><path d="m174.06,114.84c-2.26,1.71-3.8,3.65-4.73,3.4-1.46-.4-3.15-2.14-3.49-3.6-.21-.9,1.98-3.36,2.98-3.3,1.48.09,2.86,1.8,5.24,3.5Z"/><path d="m156.77,187.83h-5.7c-.77-3.51,0-6.33,3.53-6.28,1.24.02,2.44,3.23,3.66,4.98-.5.43-.99.87-1.49,1.3Z"/><path d="m135.08,187.74c-.15-3.1-1.57-6.48,2.94-6.54,1.14-.01,3.27,1.97,3.28,3.04,0,3.87-2.77,4.12-6.22,3.5Z"/><path d="m205.98,177.39c-1.44.85-3.13,2.63-4.26,2.32-1.35-.36-2.55-2.39-3.09-3.95-.18-.51,1.98-2.6,2.99-2.55,1.49.08,2.92,1.43,4.37,2.23,0,.65,0,1.29,0,1.94Z"/><path d="m79.27,80.18c1.71,2.71,3.15,4.09,3.33,5.62.1.87-2.22,3-2.81,2.79-1.55-.55-3.3-1.87-3.86-3.31-.32-.82,1.55-2.49,3.34-5.09Z"/><path d="m204.83,121.25c1.55,2.66,3.13,4.21,3.08,5.7-.03,1.11-2.17,2.16-3.38,3.23-1.08-1.24-2.91-2.42-3.01-3.73-.09-1.27,1.6-2.68,3.31-5.21Z"/><path d="m181.6,100.47c-2.41,1.58-4.05,3.4-5.01,3.1-1.34-.43-2.63-2.32-3.02-3.83-.16-.62,2.11-2.65,3.22-2.61,1.3.05,2.54,1.66,4.82,3.34Z"/><path d="m161.23,134.53c-1.79-2.77-3.36-4.12-3.27-5.35.09-1.27,1.76-3.36,2.79-3.39,1.23-.04,3.47,1.65,3.55,2.73.11,1.44-1.43,3.01-3.07,6.02Z"/><path d="m135.17,81.9c-2.73,1.6-4.13,3.1-5.33,2.94-1.24-.16-3.12-1.89-3.16-2.98-.04-1.19,1.77-3.48,2.69-3.43,1.51.08,2.94,1.64,5.8,3.47Z"/><path d="m96.52,152.66c-1.78-2.79-3.37-4.24-3.45-5.77-.05-1.01,2.11-3.02,3.2-2.97,1.27.06,3.4,1.85,3.45,2.96.06,1.46-1.54,2.99-3.2,5.78Z"/><path d="m143.34,161.22c-1.71-2.61-3.4-4.06-3.22-5.22.2-1.28,2.11-2.3,3.28-3.43,1.07,1.15,2.85,2.23,2.99,3.48.13,1.21-1.44,2.6-3.05,5.17Z"/><path d="m105.32,155.6c1.72,2.45,3.57,4.03,3.29,4.94-.46,1.47-2.32,2.5-3.59,3.72-1.02-1.22-2.73-2.37-2.84-3.67-.11-1.19,1.51-2.54,3.15-4.99Z"/><path d="m138.34,168.76c-2.25,1.66-3.54,3.34-4.78,3.31-1.23-.03-2.42-1.78-3.63-2.78,1.12-1.31,2.04-3.31,3.42-3.7,1.01-.28,2.61,1.56,5,3.16Z"/><path d="m176.47,135.88c1.32,2.85,2.54,4.4,2.57,5.97.02.88-2.4,2.76-2.91,2.52-1.43-.69-3.19-2.14-3.38-3.5-.16-1.1,1.76-2.5,3.73-4.99Z"/><path d="m170.09,189.25c-1.48-2.96-2.78-4.48-2.83-6.04-.03-.95,2.37-2.98,2.82-2.76,1.45.71,3.21,2.1,3.47,3.48.21,1.11-1.59,2.6-3.47,5.32Z"/><path d="m202.94,39.59c-2.66,1.4-4.12,2.82-5.34,2.63-1.21-.19-3.18-2.18-3.02-3.05.26-1.39,2.05-3.51,3.11-3.47,1.41.06,2.74,1.91,5.24,3.88Z"/><path d="m88.6,118.06c-2.26,1.28-3.59,2.65-4.59,2.44-1.34-.28-3.47-1.91-3.37-2.73.17-1.39,1.82-2.61,2.84-3.9,1.38,1.13,2.77,2.26,5.12,4.19Z"/><path d="m88.94,127.62c1.69,2.55,3.3,3.9,3.18,5.08-.13,1.3-1.85,2.43-2.87,3.64-1.19-1.16-3.04-2.17-3.37-3.53-.25-1.05,1.42-2.56,3.06-5.19Z"/><path d="m195.55,134.27c-2.09,1.91-3.3,3.87-4.55,3.9-1.14.02-2.93-1.9-3.27-3.26-.22-.87,1.59-3.12,2.64-3.22,1.33-.13,2.8,1.3,5.18,2.58Z"/><path d="m80.32,106.47c-1.59-2.4-3.23-3.79-3.07-4.93.18-1.3,1.96-2.38,3.05-3.56,1.08,1.38,2.58,2.62,3.07,4.18.24.75-1.41,2.1-3.05,4.31Z"/><path d="m132,92.55c1.34,2.92,2.49,4.5,2.61,6.16.05.65-2.36,2.19-3.41,2-1.17-.21-2.97-2.04-2.85-2.98.17-1.41,1.75-2.65,3.65-5.19Z"/><path d="m188.29,85.87c-2.27,1.54-3.79,3.19-4.44,2.89-1.45-.64-2.87-2.1-3.47-3.56-.23-.57,2-3.05,2.78-2.91,1.49.27,2.76,1.81,5.13,3.58Z"/><path d="m122.06,176.5c2.09,2.15,4.3,3.55,4.1,4.4-.34,1.46-2.02,2.85-3.48,3.66-.39.22-2.73-1.7-2.88-2.81-.18-1.27,1.09-2.73,2.26-5.25Z"/><path d="m116.49,193.48c-2.12,1.55-3.46,3.24-4.37,3.03-1.38-.32-3.38-1.91-3.42-3.03-.05-1.26,1.78-2.59,2.79-3.89,1.38,1.08,2.77,2.16,4.99,3.89Z"/><path d="m194.42,70.3c-2.65,1.84-4.05,3.55-5.13,3.37-1.26-.21-2.82-1.95-3.13-3.29-.21-.89,1.61-3.24,2.38-3.18,1.54.13,2.98,1.46,5.88,3.1Z"/><path d="m140.55,113.97c-2.15,1.35-3.53,2.85-4.42,2.61-1.37-.37-2.4-1.95-3.58-3.02,1.11-1.17,2.19-3.24,3.33-3.27,1.22-.03,2.49,1.85,4.67,3.68Z"/><path d="m199.05,55.61c-2.51,1.26-4.09,2.73-5.23,2.44-1.18-.3-2.79-2.42-2.64-3.52.16-1.15,2.24-2.85,3.42-2.8,1.21.05,2.34,1.92,4.45,3.88Z"/><path d="m117.53,176.98c-1.61-1.25-3.21-2.49-4.82-3.74,1.06-1.25,2.11-2.51,3.17-3.76,1.34,1.72,2.68,3.44,4.02,5.16-.79.78-1.58,1.56-2.37,2.33Z"/><path d="m191.19,181.78c-2.21,1.19-3.58,2.54-4.52,2.29-1.29-.34-3.27-2.04-3.15-2.9.19-1.39,1.86-2.58,2.91-3.85,1.29,1.21,2.59,2.42,4.77,4.47Z"/></svg>