<?xml version="1.0" encoding="UTF-8"?><svg id="Food_And_Wine" xmlns="http://www.w3.org/2000/svg" viewBox="0 0 250 250"><path d="m225.47,225.96h-41.88c5.62,6.02,10.97,11.74,16.82,18.01-1.9.11-3.31.27-4.72.27-60.38.01-120.75,0-181.13.06-2.97,0-4.4-.57-5.42-3.83-6.93-21.98-7.64-44.46-5.7-67.11.79-9.25,2.85-18.38,4.23-27.58.5-3.37,2.21-4.34,5.58-4.33,25.22.14,50.44.15,75.66,0,4.17-.03,7.2,1.35,10.14,4.18,18.6,17.92,37.31,35.73,56.03,53.53,1.29,1.22,2.8,2.62,4.43,3,5.05,1.16,7.67-1.11,7.55-6.32-.48-20.78-1.1-41.56-1.5-62.34-.06-3.06-1.41-3.71-4.02-4.24-27.87-5.65-44.38-23.21-50.78-50.26-3.64-15.37-1.64-31.02.76-46.48,1.13-7.24,2.5-14.44,3.46-21.7.51-3.91,2.12-5.15,6.17-5.13,35.61.17,71.23.1,106.84.1,12.63,0,12.68,0,14.26,12.47,1.76,13.92,3.86,27.81,5.04,41.79,2.6,30.84-18.5,60.89-47.27,68.05-9.23,2.3-9.16,2.3-9.4,11.93-.47,18.79-.93,37.59-1.62,56.37-.14,3.88,1.06,5.37,4.93,5.88,5.89.78,11.73,2.02,17.51,3.44,9.32,2.29,14.61,9.9,14.04,20.23Zm-60.49-17.89c4.7,5.72,8.12,11.16,16.37,10.67,10.2-.59,20.47-.11,30.7-.23,1.47-.02,2.93-.86,4.39-1.32-1.17-1.25-2.15-2.78-3.55-3.65-1.37-.85-3.14-1.13-4.78-1.47-7.01-1.47-14-3.15-21.08-4.21-3.91-.58-5.16-2.27-5.07-6,.55-22.9.99-45.81,1.45-68.72.06-3.16,0-6.32,0-9.63,1.67-.17,2.7-.27,3.74-.37,23.55-2.3,40.26-14.09,49.2-36.11,4.16-10.23,4.25-21.15,3.98-32.05-.08-3.19-.34-5.72-4.31-6.26-1.03-.14-2.29-1.53-2.62-2.61-.18-.59,1.24-2.35,2.11-2.48,3.51-.55,3.45-2.73,3.03-5.36-1.14-7.23-2.29-14.47-3.28-21.72-.32-2.33-1.07-3.46-3.69-3.45-35.6.07-71.2.06-106.8,0-2.49,0-3.43.84-3.76,3.35-.95,7.25-2.14,14.48-3.37,21.7-.48,2.82-.03,4.69,3.09,5.54.89.24,2,1.73,2,2.64,0,.82-1.36,2.33-2.16,2.36-4.44.13-4.6,2.89-4.45,6.24.11,2.58-.25,5.19-.28,7.78-.43,31.73,20.47,58.05,53.22,60.38,2.77.2,3.61,1.15,3.67,3.86.49,23.82,1.14,47.64,1.64,71.47.18,8.56.04,8.56-9.39,9.67Zm17.6,28.86c.44-.63.88-1.25,1.32-1.88-1.64-1.1-3.47-1.99-4.88-3.33-27.71-26.52-55.4-53.06-82.97-79.72-2.29-2.21-4.45-3.2-7.59-3.18-21.7.1-43.4.05-65.11.05-5.96,0-9.75,2.76-11.11,8.67-.86,3.7-1.14,7.54-1.52,11.34-2.09,20.93-1.99,41.74,2.76,62.41,1.02,4.46,2.8,5.76,7.33,5.75,52.42-.17,104.84-.11,157.26-.11,1.5,0,3.01,0,4.51,0Z"/><path d="m217.61,46.27c2.07-1.68,3.4-3.52,4.4-3.36,1.23.2,3.23,2.33,3.03,3.17-.34,1.4-2.01,2.79-3.46,3.44-.54.24-2.02-1.6-3.96-3.26Z"/><path d="m134.77,42.19c.8,1.33,2.33,2.74,2.2,3.96-.14,1.27-1.89,2.37-2.93,3.54-1.04-1.11-2.75-2.14-2.93-3.37-.18-1.26,1.17-2.73,1.84-4.11.61,0,1.21-.02,1.82-.03Z"/><path d="m149.62,42.23c.74,1.35,1.93,2.65,2.12,4.08.31,2.31-1.13,3.96-3.51,3.26-1.07-.32-2.3-2.16-2.34-3.35-.05-1.32,1.18-2.68,1.85-4.02.62.01,1.25.02,1.87.03Z"/><path d="m158.74,46.2c2.28-1.7,3.71-3.49,4.65-3.27,1.24.3,2.9,2.18,2.9,3.38,0,1.13-1.78,2.92-3.04,3.18-.95.19-2.29-1.58-4.51-3.29Z"/><path d="m173.41,46.15c2.29-1.67,3.74-3.45,4.67-3.22,1.24.31,2.88,2.2,2.87,3.41,0,1.13-1.81,2.91-3.06,3.15-.95.18-2.28-1.61-4.48-3.34Z"/><path d="m188.1,46.72c2.15-1.97,3.39-3.93,4.38-3.82,1.23.14,3.07,1.94,3.16,3.14.09,1.14-1.54,3.04-2.79,3.44-.9.29-2.42-1.32-4.76-2.77Z"/><path d="m202.78,46.76c2.14-1.99,3.36-3.96,4.36-3.86,1.23.13,3.08,1.93,3.17,3.13.09,1.14-1.52,3.05-2.77,3.46-.9.3-2.42-1.31-4.77-2.73Z"/><path d="m106.68,182.71c6.71.13,15.42,8.52,15.95,14.07.28,2.84-1.21,3.84-3.77,3.78-5.63-.13-14.21-8.62-14.05-14.23.04-1.4,1.4-2.77,1.86-3.62Z"/><path d="m66.98,163.68c4.31.12,11.19,6.52,11.01,9.78-.06,1.03-2.14,2.84-3.17,2.75-3.49-.29-8.44-5.46-8.85-8.97-.14-1.22.71-2.55,1.02-3.56Z"/><path d="m126.38,222.11c-5.16-.77-8.54-3.68-10.93-7.65-.7-1.16-.15-3.07-.17-4.63,1.37.15,2.91-.06,4.08.5,5.17,2.5,7.48,6.38,7.02,11.78Z"/><path d="m62.85,200.69c2.12-1.85,3.48-3.83,4.39-3.64,1.29.27,3.17,2.18,3.12,3.3-.06,1.19-1.93,2.71-3.32,3.24-.68.26-2.09-1.39-4.18-2.9Z"/><path d="m39.39,168.7c-1.36,1.56-2.73,3.11-4.09,4.67-.86-1.29-2.7-3.31-2.39-3.72,1.04-1.39,2.84-2.21,4.36-3.25.71.77,1.42,1.54,2.12,2.3Z"/><path d="m50.43,180.23c-1.85,1.39-3.01,2.9-4.24,2.97-.9.05-2.78-1.99-2.63-2.81.22-1.21,1.71-2.75,2.93-3.04.84-.2,2.12,1.48,3.93,2.87Z"/><path d="m88.31,225.13c-1.17-2.38-2.48-3.81-2.26-4.93.22-1.13,1.98-1.95,3.07-2.9.95,1.17,2.6,2.33,2.63,3.52.03,1.1-1.69,2.24-3.44,4.31Z"/><path d="m76,207.21c1.65.5,3.54.68,4.82,1.66.49.38-.2,2.73-.84,3.91-.29.54-2.4.87-2.6.56-1.03-1.52-1.7-3.28-2.49-4.95.37-.39.75-.79,1.12-1.18Z"/><path d="m103.98,230.84c-2.14,1.2-3.49,2.56-4.42,2.32-1.19-.31-2.04-1.91-3.04-2.96,1-.9,2.09-2.6,2.98-2.5,1.28.15,2.42,1.6,4.49,3.14Z"/><path d="m29.2,159.84c-1.9,1.61-3.11,3.23-3.74,3.04-1.29-.4-2.78-1.63-3.17-2.84-.22-.7,1.47-2.79,2.44-2.89,1.09-.11,2.33,1.32,4.47,2.7Z"/><path d="m53.39,191.47c1.26-1.43,2.52-2.86,3.79-4.29.95,1.19,1.91,2.37,2.86,3.56-1.55,1-3.1,2-4.65,2.99-.67-.76-1.33-1.51-2-2.27Z"/></svg>