<?xml version="1.0" encoding="UTF-8"?><svg id="Cook" xmlns="http://www.w3.org/2000/svg" viewBox="0 0 250 250"><defs><style>.cls-1{fill:#fff;}</style></defs><path d="m94.63,22.25c6.07-12.43,16.21-19.52,30.44-19.75,14.4-.23,24.1,7.65,30.73,20.17,6.9-4.16,13.58-6.26,21.15-4.3,19.28,4.98,26.02,28.23,12.06,42.6-2.68,2.76-3.17,5.57-3.65,9.12-2.06,15.2,4.53,28.6,8.16,42.62,4.14,16.02,4.06,31.99-.4,47.98-.84,3-2.18,4.02-5.23,3.97-9.29-.16-18.57-.08-27.86-.05-6.18.03-8.42,2.52-8.65,8.53-.13,3.37,1.38,4.51,4.26,5.6,13.35,5.02,26.85,9.78,39.79,15.72,6.87,3.15,13.04,8.14,18.93,13.02,6.4,5.3,8.88,12.79,8.93,21.04.04,6.25,0,12.51,0,18.98H27.5c-2.02-25.51-1.84-35.79,21.17-49.95,14.03-8.63,29.49-14.06,45.18-18.66,5-1.47,5.42-4.25,4.78-8.33-.64-4.09-3.02-5.96-7.1-5.95-9.45.03-18.89-.15-28.33.08-3.61.09-5.21-1.07-6.22-4.63-6-21.13-3.97-41.9,3.67-61.98,3.91-10.28,4.22-20.52,3.79-31.01-.09-2.27-2.06-4.74-3.73-6.62-7.62-8.59-9.07-20-3.5-29.73,5.3-9.26,16.45-14.71,26.39-12.49,3.62.81,7.04,2.54,11.06,4.03Zm83.32,62.85c0-6.83-.19-13.27.12-19.68.09-1.87,1.16-4.29,2.59-5.39,6.81-5.17,10.01-11.84,8.26-20.16-1.71-8.12-7.12-13.36-15.35-14.73-7.87-1.31-14.56,1.04-19.12,8.18-.77,1.2-2.63,1.69-3.98,2.51-.42-1.68-.96-3.33-1.23-5.03-.41-2.54.13-5.55-1.05-7.58-5.23-8.98-13.3-13.79-23.77-13.39-10.59.4-18.45,5.7-23.25,15.18-1.44,2.83-2.27,5.97-4.09,10.87-1.46-2.31-2.04-4.41-3.37-5.13-4.18-2.25-8.5-5.17-13.01-5.68-8.84-1.01-15.76,4.24-18.88,12.58-2.75,7.37-.45,15.71,6.29,21.09,3,2.39,4.33,4.95,4.13,8.81-.3,5.76-.08,11.54-.08,17.55h105.79Zm37.78,154.85c0-3.97-.24-7.72.05-11.43.52-6.72-2.11-11.99-7.08-16.15-3.48-2.92-6.92-6.14-10.93-8.12-11.37-5.63-22.99-10.78-34.6-15.92-3.62-1.6-7.51-2.59-11.38-3.9-1.16,15.14-11.31,25.03-25.84,25.43-7.15.2-13.54-2.05-19.21-6.57-5.96-4.74-9.25-10.57-7.94-19.17-5.08,1.86-9.33,3.36-13.54,4.98-14.07,5.43-28.19,10.83-40.31,20.12-10.48,8.03-13.52,17.92-9.81,30.75h180.59ZM127.19,92.83c-8.96,0-17.92,0-26.89,0-7.73,0-8.48.52-11.14,7.87-.42,1.17-.86,2.39-.99,3.62-1.39,13-2.08,26.02,1.19,38.84,2.43,9.52,7.66,17.39,16.54,21.9,10.06,5.11,19.92,9.01,31.92,3.3,11.83-5.63,20.19-13.22,23.12-25.93,3.48-15.03,1.8-30.34,1.46-45.55-.07-3.05-1.89-4.17-5.02-4.12-10.06.17-20.12.06-30.19.06Zm-42.74,0c-4.11,0-7.88.2-11.61-.06-2.94-.21-4.41.95-4.94,3.68-2.29,11.99-5.23,23.9-6.63,35.99-.81,7.01.73,14.31,1.5,21.45.12,1.13,1.7,2.97,2.66,3.01,7.17.26,14.35.14,22.07.14-9.45-21.09-10.6-42.07-3.05-64.2Zm77.64,64.23c6.52,0,12.42,0,18.33,0,6.83.01,6.76-.04,7.86-6.85,3.03-18.74-.93-36.58-6.93-54.13-.45-1.32-2.15-2.88-3.47-3.1-2.86-.47-5.85-.15-8.81-.15,1.54,22.01,4.45,43.53-6.99,64.22Zm-18.23,14.85c-12.68,8.64-24.94,8.61-37.7-.39,0,6.26.34,10.79-.08,15.26-.68,7.2,2.99,11.66,9.12,13.55,4.78,1.47,10.21,2.1,15.14,1.46,5.95-.77,12.09-3.56,13.3-10.21,1.07-5.87.22-12.1.22-19.66Z"/><path class="cls-1" d="m86.02,39.68c2.03,1.83,3.47,3.92,4.3,3.7,1.56-.4,2.77-2.15,4.12-3.33-1.31-1.23-2.45-2.94-4-3.49-.78-.28-2.3,1.55-4.42,3.12Zm53.98,6.64c.54.55,1.07,1.1,1.61,1.64,1.78-.79,3.89-1.25,5.18-2.53.6-.6.02-3.13-.8-4.17-.64-.81-3.4-1.22-3.63-.85-1.08,1.79-1.62,3.9-2.36,5.9Zm-30.32,22.33c-1.45,2.6-2.92,4.05-2.7,5.17.27,1.4,1.94,2.52,3,3.76,1.09-1.2,2.98-2.35,3.05-3.61.07-1.31-1.61-2.71-3.35-5.32Zm14.55,9.48l2-.04c.71-1.41,2.21-3.01,1.93-4.18-.33-1.37-2.21-2.37-3.42-3.52-.95,1.19-2.6,2.35-2.65,3.58-.05,1.36,1.37,2.77,2.15,4.16Zm21.03-4.38c-2.63-1.63-4.22-3.37-5.36-3.11-1.19.27-2.63,2.42-2.68,3.81-.04,1,2.01,2.94,3.09,2.92,1.28-.03,2.52-1.73,4.95-3.61Zm15.13.01c-2.65-1.64-4.24-3.38-5.38-3.12-1.19.27-2.6,2.44-2.65,3.83-.04.99,2.01,2.91,3.1,2.89,1.27-.03,2.51-1.72,4.93-3.6Zm14.87.75c-2.34-1.83-3.77-2.95-5.2-4.07-.91,1.36-2.63,2.82-2.49,4.06.13,1.12,2.18,2.44,3.61,2.82.8.21,2.05-1.34,4.08-2.81Zm-75.33-.5c-2.57-1.76-4.04-3.54-5.23-3.36-1.16.17-2.7,2.28-2.8,3.63-.08,1.01,1.84,3.04,2.9,3.06,1.29.03,2.61-1.58,5.13-3.33Zm-15.01-.12c-2.81-1.69-4.29-3.29-5.6-3.16-1.09.11-2.65,2.23-2.7,3.51-.04.89,2.07,2.47,3.35,2.61,1.1.13,2.38-1.34,4.95-2.97Z"/><path d="m86.02,39.68c2.12-1.56,3.64-3.39,4.42-3.12,1.55.55,2.69,2.26,4,3.49-1.35,1.19-2.56,2.93-4.12,3.33-.84.22-2.27-1.87-4.3-3.7Z"/><path d="m140,46.32c.73-2,1.27-4.12,2.36-5.9.23-.38,2.99.04,3.63.85.82,1.04,1.4,3.57.8,4.17-1.29,1.28-3.4,1.74-5.18,2.53-.54-.55-1.07-1.1-1.61-1.64Z"/><path d="m109.68,68.64c1.74,2.6,3.43,4.01,3.35,5.32-.07,1.26-1.96,2.41-3.05,3.61-1.06-1.24-2.73-2.36-3-3.76-.22-1.12,1.26-2.57,2.7-5.17Z"/><path d="m124.23,78.12c-.78-1.39-2.2-2.8-2.15-4.16.05-1.22,1.7-2.39,2.65-3.58,1.21,1.16,3.09,2.15,3.42,3.52.28,1.17-1.22,2.77-1.93,4.18l-2,.04Z"/><path d="m145.26,73.74c-2.43,1.88-3.66,3.58-4.95,3.61-1.08.03-3.14-1.91-3.09-2.92.06-1.38,1.49-3.54,2.68-3.81,1.14-.26,2.73,1.48,5.36,3.11Z"/><path d="m160.39,73.76c-2.43,1.88-3.66,3.57-4.93,3.6-1.09.02-3.14-1.9-3.1-2.89.06-1.39,1.47-3.56,2.65-3.83,1.14-.26,2.73,1.48,5.38,3.12Z"/><path d="m175.27,74.51c-2.02,1.46-3.28,3.01-4.08,2.81-1.43-.37-3.49-1.7-3.61-2.82-.14-1.24,1.58-2.7,2.49-4.06,1.43,1.12,2.86,2.24,5.2,4.07Z"/><path d="m99.94,74.01c-2.53,1.75-3.85,3.35-5.13,3.33-1.06-.02-2.98-2.05-2.9-3.06.11-1.36,1.64-3.46,2.8-3.63,1.19-.17,2.66,1.6,5.23,3.36Z"/><path d="m84.93,73.89c-2.56,1.63-3.85,3.09-4.95,2.97-1.28-.15-3.39-1.73-3.35-2.61.05-1.28,1.61-3.4,2.7-3.51,1.31-.13,2.79,1.47,5.6,3.16Z"/><path d="m206.01,229.39c-2.56,1.56-3.98,3.1-4.97,2.86-1.41-.34-3.39-1.92-3.48-3.1-.09-1.19,1.9-3.62,2.84-3.56,1.5.1,2.89,1.83,5.61,3.8Z"/><path d="m49.06,223.85c1.77,2.22,3.59,3.5,3.56,4.73-.03,1.31-1.82,2.58-2.83,3.86-1.26-1.25-3.04-2.31-3.58-3.82-.31-.87,1.39-2.45,2.85-4.77Z"/><path d="m69.77,229.12c-2.64,1.67-4.03,3.24-5.29,3.14-1.11-.09-2.96-2.16-2.86-3.18.14-1.34,1.79-3.38,2.97-3.52,1.2-.14,2.62,1.68,5.19,3.55Z"/><path d="m114.95,228.63c-2.31,1.87-3.62,3.73-4.74,3.62-1.25-.12-3.18-1.97-3.25-3.17-.07-1.2,1.62-3.35,2.81-3.55,1.17-.21,2.67,1.5,5.17,3.11Z"/><path d="m84.8,228.64c-2.42,1.88-3.66,3.58-4.94,3.61-1.08.03-3.13-1.91-3.09-2.91.05-1.38,1.49-3.54,2.68-3.81,1.14-.25,2.73,1.48,5.36,3.11Z"/><path d="m99.94,228.8c-2.5,1.81-3.79,3.47-5.06,3.45-1.09-.01-3.07-2-3-3.01.08-1.36,1.59-3.48,2.78-3.7,1.16-.22,2.68,1.55,5.29,3.26Z"/><path d="m124.12,233c-.75-1.41-2.15-2.87-2.07-4.23.07-1.21,1.79-2.31,2.78-3.47,1.18,1.18,3.04,2.22,3.33,3.6.25,1.18-1.3,2.73-2.05,4.12-.66,0-1.33-.01-1.99-.02Z"/><path d="m139.85,223.55c1.76,2.56,3.46,3.95,3.4,5.25-.06,1.27-1.92,2.45-2.99,3.67-1.09-1.22-2.79-2.32-3.08-3.71-.23-1.11,1.24-2.58,2.67-5.21Z"/><path d="m160.42,229.04c-2.59,1.7-3.96,3.29-5.22,3.21-1.1-.07-2.97-2.12-2.88-3.14.12-1.34,1.73-3.4,2.91-3.55,1.19-.15,2.63,1.65,5.19,3.48Z"/><path d="m175.47,228.64c-2.42,1.88-3.65,3.58-4.94,3.62-1.08.03-3.13-1.91-3.09-2.91.06-1.38,1.48-3.54,2.68-3.81,1.14-.26,2.72,1.48,5.35,3.11Z"/><path d="m184.89,233.07c-.85-1.35-2.36-2.69-2.37-4.04,0-1.25,1.6-2.5,2.5-3.76,1.26,1.11,3.2,2.02,3.59,3.38.34,1.17-1.09,2.84-1.74,4.29-.66.04-1.32.08-1.98.12Z"/><path d="m151.99,118.23c-1.91,1.51-3.6,3.6-5.77,4.37-2.43.86-6.38-2.97-5.52-5.46.66-1.93,3.12-4.55,4.75-4.53,2.17.02,4.32,2.31,6.48,3.62.02.67.04,1.33.06,2Z"/><path d="m110.37,118.37c-1.93,1.46-3.66,3.54-5.83,4.22-2.5.79-6.33-3.14-5.39-5.57.73-1.91,3.22-4.42,4.86-4.38,2.15.06,4.24,2.36,6.36,3.7,0,.67,0,1.34,0,2.01Z"/></svg>